# xmcd CD database file
#
# Track frame offsets:
#	150
#	31052
#	47397
#	77187
#	101477
#	115125
#	145125
#	172222
#	199009
#	225857
#	246032
#	261467
#	283607
#	305332
#
# Disc length: 4571 seconds
#
# Revision: 6
# Processed by: cddbd v1.5.2PL0 Copyright (c) Steve Scherf et al.
# Submitted via: CDex 1.51
#
DISCID=b611d90e
DTITLE=Various Artist - Classic Jazz - The Seventies - Disc 1 of 2
DYEAR=2002
DGENRE=Jazz
TTITLE0=The Mahavishnu Orchestra - Meeting Of The Spirits
TTITLE1=Gil Scott-Heron - Lady Day and John Contrane
TTITLE2=Gil Evans - Thoroughbred
TTITLE3=Ornette Coleman - Law Years
TTITLE4=The Crusaders - Put It Where You Want It
TTITLE5=Dexter Gordon - The Moontrane
TTITLE6=McCoy Tyner - Departure
TTITLE7=Miles Davis - Medley: Gemini and Double Image
TTITLE8=Charles Mingus - Remember Rockefeller At Attica
TTITLE9=Keith Jarrett - Treasure Island
TTITLE10=Grover Washington Jr - Mister Magic
TTITLE11=Eddie Palmieri - Resemblance
TTITLE12=Wayne Shorter - Miracle Of The Fishes
TTITLE13=Stan Getz - La Fiesta
EXTD=Classic Jazz: The Seventies - Disc 1 of 2\n2002 Time-Life, Inc. YEAR: 2002
EXTT0=
EXTT1=
EXTT2=
EXTT3=
EXTT4=
EXTT5=
EXTT6=
EXTT7=
EXTT8=
EXTT9=
EXTT10=
EXTT11=
EXTT12=
EXTT13=
PLAYORDER=
